<svg xmlns="http://www.w3.org/2000/svg" viewBox="0 0 21 21" height="21" width="21"><title>marker.svg</title><rect fill="none" x="0" y="0" width="21" height="21"></rect><path fill="#000" transform="translate(3 3)" d="M7.5 1C5.42312 1 3 2.2883 3 5.56759C3 7.79276 6.46156 12.7117 7.5 14C8.42309 12.7117 12 7.90993 12 5.56759C12 2.2883 9.57688 1 7.5 1Z" style="stroke-linejoin:round;stroke-miterlimit:4;" stroke="#000" stroke-width="2"></path><path fill="#ffbf00" transform="translate(3 3)" d="M7.5 1C5.42312 1 3 2.2883 3 5.56759C3 7.79276 6.46156 12.7117 7.5 14C8.42309 12.7117 12 7.90993 12 5.56759C12 2.2883 9.57688 1 7.5 1Z"></path></svg>